<!--?xml version="1.0" standalone="no"?-->

<svg xmlns="http://www.w3.org/2000/svg" width="300.000000pt" height="300.000000pt" viewBox="0 0 300.000000 300.000000" preserveAspectRatio="xMidYMid meet">
<g transform="translate(0.000000,300.000000) scale(0.100000,-0.100000)" fill="#040404" stroke="none">
<path style="position: relative;" class="node" id="node1" d="M2773 2421 c-23 -11 -50 -28 -61 -39 -32 -32 -125 -40 -553 -48 -302
-5 -411 -4 -427 5 -16 8 -138 13 -405 16 -210 2 -390 6 -399 10 -32 13 -58
-12 -58 -56 0 -32 -4 -41 -25 -51 -14 -6 -31 -21 -39 -33 -22 -34 -59 -39
-106 -15 -49 25 -113 27 -108 4 2 -9 20 -22 41 -29 65 -22 87 -50 87 -111 0
-29 -4 -64 -9 -77 -12 -31 -84 -62 -176 -76 -38 -6 -88 -15 -110 -21 -22 -5
-53 -12 -68 -15 -26 -5 -28 -9 -21 -33 5 -15 9 -49 9 -77 0 -57 -46 -164 -109
-253 -20 -29 -36 -54 -36 -56 0 -2 -15 -29 -34 -60 -42 -70 -74 -171 -92 -296
-8 -52 -18 -108 -23 -125 -5 -16 -19 -85 -31 -152 -20 -104 -21 -126 -10 -153
38 -91 88 -110 316 -117 148 -5 163 -4 200 15 36 18 42 27 58 84 10 35 25 71
34 82 14 15 17 39 17 130 0 95 3 117 22 153 21 39 21 44 7 73 -18 36 -13 85
16 140 27 49 65 73 124 78 47 4 55 1 100 -34 42 -32 52 -35 68 -25 12 8 35 10
62 6 58 -9 187 12 244 39 119 57 121 59 153 180 13 50 46 94 89 117 14 7 61
16 104 19 103 9 109 15 100 131 -8 110 1 176 27 189 11 6 114 13 232 17 l212
5 35 32 c39 37 99 69 156 85 22 6 158 14 304 17 146 4 275 10 288 15 20 8 22
15 22 79 0 39 -7 97 -17 130 -14 51 -20 60 -39 60 -13 0 -29 8 -36 18 -16 23
-51 42 -75 42 -10 0 -37 -9 -60 -19z m-1504 -817 c40 -11 71 -28 95 -52 31
-29 36 -41 36 -80 0 -65 -31 -106 -105 -141 -68 -33 -145 -51 -211 -51 -97 0
-164 57 -164 139 0 33 6 56 20 74 11 14 20 30 20 35 0 6 7 17 15 26 13 13 20
13 57 -2 59 -22 68 -30 68 -62 0 -54 84 -141 134 -139 21 0 21 0 1 12 -39 23
-93 86 -100 116 -9 41 10 96 42 121 31 24 21 24 92 4z"></path>
</g>
<g transform="translate(0.000000,300.000000) scale(0.100000,-0.100000)" fill="#A1A1A1" stroke="none">



</g>
</svg>