<!--?xml version="1.0" standalone="no"?-->

<svg version="1.0" xmlns="http://www.w3.org/2000/svg" width="300.000000pt" height="300.000000pt" viewBox="0 0 300.000000 300.000000" preserveAspectRatio="xMidYMid meet">
<g transform="translate(0.000000,300.000000) scale(0.100000,-0.100000)" fill="#2C312E" stroke="none">
<path class="node" id="node1" d="M1535 2833 c-50 -42 -95 -82 -101 -88 -6 -5 -67 -62 -135 -125 -400
-370 -1154 -1134 -1203 -1217 -32 -57 62 -230 216 -400 21 -24 38 -46 38 -50
0 -5 -49 -52 -108 -105 -192 -172 -200 -240 -45 -390 85 -82 118 -97 190 -83
32 5 59 28 161 131 l122 126 145 -139 c228 -221 456 -388 545 -400 38 -5 41
-3 187 135 187 176 962 960 1183 1197 126 135 180 198 180 212 0 19 -36 87
-71 136 -16 22 -29 45 -29 51 0 7 20 32 45 56 52 51 65 93 41 138 -39 76 -136
68 -202 -17 -14 -18 -38 -9 -60 24 -17 26 -17 26 30 72 55 53 70 85 61 130 -8
43 -48 73 -97 73 -34 0 -47 -8 -95 -52 l-55 -53 -30 34 -29 33 55 58 c49 52
56 63 56 100 0 65 -61 112 -125 96 -13 -3 -48 -28 -76 -55 l-52 -49 -34 25
c-18 14 -33 30 -33 36 0 5 20 32 45 58 37 40 45 55 45 87 0 64 -62 114 -123
98 -12 -3 -44 -26 -70 -51 -27 -25 -52 -45 -55 -45 -4 0 -22 13 -41 29 l-35
29 42 47 c55 62 57 102 8 151 -52 52 -95 46 -171 -27 l-40 -38 -43 30 c-53 36
-117 69 -134 69 -8 0 -54 -35 -103 -77z m144 -149 c2 -2 -15 -24 -38 -50 -34
-39 -41 -54 -41 -90 0 -55 41 -94 100 -94 33 0 48 8 99 56 l61 56 35 -26 c19
-15 35 -31 35 -35 0 -4 -20 -30 -45 -57 -52 -56 -64 -98 -41 -142 20 -38 44
-52 91 -52 31 0 46 9 96 57 l60 57 35 -35 35 -35 -45 -45 c-50 -47 -72 -95
-61 -131 18 -58 88 -93 136 -68 13 7 45 32 70 57 l46 44 31 -33 32 -32 -49
-51 c-27 -27 -54 -60 -61 -73 -27 -55 29 -132 96 -132 28 0 45 10 88 50 29 27
57 50 62 50 4 0 18 -12 30 -27 l22 -28 -59 -63 c-52 -55 -59 -68 -59 -103 0
-31 7 -47 29 -70 47 -46 102 -39 168 23 38 36 53 30 53 -21 0 -34 -9 -48 -67
-112 -315 -346 -1022 -1037 -1265 -1237 -15 -13 -22 -12 -55 3 -82 39 -343
254 -491 404 l-44 44 59 61 c180 188 378 379 663 641 18 16 40 45 48 65 40 93
150 433 145 447 -4 11 -14 13 -41 8 -19 -3 -42 -10 -51 -15 -9 -5 -45 -18 -81
-30 -36 -12 -120 -42 -188 -67 -138 -52 -107 -25 -364 -308 -85 -93 -228 -241
-319 -328 l-164 -158 -35 40 c-90 102 -160 209 -160 245 0 25 497 543 990
1032 315 313 330 325 373 317 18 -3 34 -7 36 -9z m-275 -999 c53 -53 54 -56
43 -84 -7 -16 -96 -109 -197 -207 -309 -297 -370 -361 -705 -729 -148 -163
-161 -174 -205 -175 -28 0 -43 9 -82 47 -48 47 -59 82 -42 126 3 9 94 96 202
194 324 295 491 458 797 782 56 59 103 94 132 101 1 0 26 -25 57 -55z"></path>
</g>
<g transform="translate(0.000000,300.000000) scale(0.100000,-0.100000)" fill="#FFFFFF" stroke="none">

<path class="node" id="node3" d="M1573 2669 c-84 -66 -934 -924 -1206 -1218 -48 -51 -87 -99 -87 -107
0 -36 70 -143 160 -245 l35 -40 164 158 c91 87 234 235 319 328 257 283 226
256 364 308 68 25 152 55 188 67 36 12 72 25 81 30 9 5 32 12 51 15 27 5 37 3
41 -8 5 -14 -105 -354 -145 -447 -8 -20 -30 -49 -48 -65 -285 -262 -483 -453
-663 -641 l-59 -61 44 -44 c148 -150 409 -365 491 -404 33 -15 40 -16 55 -3
243 200 950 891 1265 1237 58 64 67 78 67 112 0 51 -15 57 -53 21 -66 -62
-121 -69 -168 -23 -22 23 -29 39 -29 70 0 35 7 48 59 103 l59 63 -22 28 c-12
15 -26 27 -30 27 -5 0 -33 -23 -62 -50 -43 -40 -60 -50 -88 -50 -67 0 -123 77
-96 132 7 13 34 46 61 73 l49 51 -32 32 -31 33 -46 -44 c-25 -25 -57 -50 -70
-57 -48 -25 -118 10 -136 68 -11 36 11 84 61 131 l45 45 -35 35 -35 35 -60
-57 c-50 -48 -65 -57 -96 -57 -47 0 -71 14 -91 52 -23 44 -11 86 41 142 25 27
45 53 45 57 0 4 -16 20 -35 35 l-35 26 -61 -56 c-51 -48 -66 -56 -99 -56 -59
0 -100 39 -100 94 0 36 7 51 41 90 23 26 40 48 38 50 -2 2 -18 6 -36 9 -25 5
-39 0 -70 -24z"></path>
<path class="node" id="node4" d="M1315 1726 c-16 -7 -61 -47 -100 -87 -306 -324 -473 -487 -797 -782
-108 -98 -199 -185 -202 -194 -17 -44 -6 -79 42 -126 39 -38 54 -47 82 -47 44
1 57 12 205 175 335 368 396 432 705 729 101 98 190 191 197 207 11 28 10 31
-43 84 -31 30 -56 55 -57 55 -1 -1 -15 -7 -32 -14z"></path>
</g>
</svg>