<!--?xml version="1.0" standalone="no"?--><svg version="1.0" xmlns="http://www.w3.org/2000/svg" width="300.000000pt" height="300.000000pt" viewBox="0 0 300.000000 300.000000" preserveAspectRatio="xMidYMid meet">
<metadata>
  <rdf:rdf xmlns:rdf="http://www.w3.org/1999/02/22-rdf-syntax-ns#" xmlns:rdfs="http://www.w3.org/2000/01/rdf-schema#" xmlns:dc="http://purl.org/dc/elements/1.1/">
    <rdf:description dc:title="school stationary things" dc:publisher="Hiox" dc:date="2015-03-14" dc:format="image/svg+xml" dc:language="en">
      <dc:creator>
        <rdf:bag>
          <rdf:li>svgimages.com</rdf:li>
        </rdf:bag>
      </dc:creator>
    </rdf:description>
  </rdf:rdf>
</metadata>
<g transform="translate(0.000000,300.000000) scale(0.100000,-0.100000)" fill="#2B2728" stroke="none">
<path d="M2105 2658 c-3 -7 -4 -508 -3 -1113 l3 -1100 425 0 425 0 0 1110 0
1110 -423 3 c-333 2 -424 0 -427 -10z m716 -84 l46 -6 -1 -1011 -1 -1012 -335
0 -335 0 -3 1005 c-1 553 0 1010 2 1016 5 12 534 19 627 8z" id="node1" class="node"></path>
<path d="M2247 2534 c-14 -14 -6 -54 12 -64 11 -5 78 -10 148 -10 142 0 167 8
161 51 l-3 24 -156 3 c-85 1 -158 -1 -162 -4z" id="node2" class="node"></path>
<path d="M2250 2286 c-13 -13 -13 -53 1 -62 19 -12 193 -4 201 9 10 16 10 29
-1 46 -12 18 -184 24 -201 7z" id="node3" class="node"></path>
<path d="M2244 1906 c-3 -8 -4 -25 -2 -38 3 -22 7 -23 101 -26 95 -3 97 -2
109 22 20 45 -1 56 -109 56 -72 0 -95 -3 -99 -14z" id="node4" class="node"></path>
<path d="M2250 1596 c-6 -8 -10 -25 -8 -38 3 -23 4 -23 163 -23 l160 0 3 24
c7 43 -19 51 -169 51 -107 0 -139 -3 -149 -14z" id="node5" class="node"></path>
<path d="M2247 1283 c-4 -3 -7 -19 -7 -35 l0 -28 104 0 c97 0 105 2 111 20 13
40 -10 50 -110 50 -50 0 -95 -3 -98 -7z" id="node6" class="node"></path>
<path d="M2244 906 c-3 -8 -4 -25 -2 -38 3 -22 7 -23 100 -26 89 -2 98 -1 108
18 8 14 8 26 0 40 -10 18 -21 20 -106 20 -73 0 -96 -3 -100 -14z" id="node7" class="node"></path>
<path d="M2245 630 c-3 -11 -3 -29 0 -40 6 -19 15 -20 154 -20 160 0 176 5
169 52 -3 23 -5 23 -160 26 -150 2 -157 2 -163 -18z" id="node8" class="node"></path>
<path d="M120 2302 c-52 -27 -79 -89 -80 -179 l0 -72 32 -6 c18 -3 132 -5 253
-3 l220 3 3 70 c4 87 -9 132 -48 170 l-31 30 -157 3 c-138 2 -161 1 -192 -16z
m330 -108 c21 -56 24 -55 -152 -52 l-163 3 3 25 c7 47 16 50 163 50 l139 0 10
-26z" id="node9" class="node"></path>
<path d="M100 1997 c-54 -27 -55 -32 -58 -557 -2 -447 -1 -488 15 -520 25 -48
72 -74 109 -60 16 6 35 18 41 27 12 15 15 15 35 -4 37 -34 61 -36 101 -9 20
14 39 21 42 15 4 -5 19 -16 36 -24 25 -14 33 -14 63 -1 67 28 66 20 66 566 0
542 0 545 -61 570 -32 14 -75 7 -100 -16 -14 -13 -18 -13 -29 0 -6 9 -28 18
-47 22 -27 5 -41 2 -64 -15 l-30 -22 -26 20 c-29 24 -57 26 -93 8z m58 -69
c14 -14 17 -964 3 -987 -5 -8 -16 -11 -25 -8 -14 6 -16 57 -16 500 0 272 3
497 7 500 9 10 17 9 31 -5z m160 -492 c2 -449 1 -497 -14 -503 -9 -3 -20 0
-25 8 -5 8 -9 230 -9 495 0 483 2 512 35 501 7 -3 11 -168 13 -501z m150 492
c14 -14 17 -964 3 -987 -5 -8 -16 -11 -25 -8 -14 6 -16 57 -16 500 0 272 3
497 7 500 9 10 17 9 31 -5z" id="node10" class="node"></path>
<path d="M1445 1515 c-16 -9 -173 -158 -347 -333 l-318 -318 0 -47 0 -47 164
-165 165 -165 113 0 114 0 296 298 c323 324 326 329 294 406 -17 41 -335 362
-372 376 -36 14 -74 12 -109 -5z m234 -237 c101 -102 161 -171 161 -183 0 -13
-64 -84 -175 -195 l-175 -175 -178 178 -177 177 181 180 c99 99 185 180 191
180 6 0 83 -73 172 -162z m-440 -439 c94 -94 171 -173 171 -174 0 -2 -30 -33
-67 -69 l-68 -66 -82 0 -83 0 -99 100 c-120 120 -141 146 -141 173 0 18 174
207 191 207 4 0 84 -77 178 -171z" id="node11" class="node"></path>
<path d="M56 792 c-2 -4 21 -42 52 -84 31 -43 86 -118 120 -168 35 -49 67 -90
72 -90 4 0 28 30 53 68 26 37 73 104 107 150 59 81 80 115 80 126 0 9 -478 7
-484 -2z m364 -60 c0 -5 -13 -27 -29 -49 -28 -39 -30 -40 -92 -40 -68 0 -81 8
-114 70 l-16 27 126 0 c69 0 125 -4 125 -8z" id="node12" class="node"></path>
<path d="M300 386 c-6 -8 -10 -23 -8 -33 3 -17 61 -18 1333 -18 l1330 0 0 30
0 30 -1321 3 c-1147 2 -1323 0 -1334 -12z" id="node13" class="node"></path>
</g>
<g transform="translate(0.000000,300.000000) scale(0.100000,-0.100000)" fill="#BDB65D" stroke="none">

<path d="M2194 2566 c-2 -6 -3 -463 -2 -1016 l3 -1005 335 0 335 0 1 1012 1
1011 -46 6 c-93 11 -622 4 -627 -8z m374 -55 c6 -43 -19 -51 -161 -51 -70 0
-137 5 -148 10 -18 10 -26 50 -12 64 4 3 77 5 162 4 l156 -3 3 -24z m-117
-232 c11 -17 11 -30 1 -46 -8 -13 -182 -21 -201 -9 -14 9 -14 49 -1 62 17 17
189 11 201 -7z m-1 -374 c10 -12 10 -21 2 -41 -12 -24 -14 -25 -109 -22 -94 3
-98 4 -101 26 -7 48 1 52 101 52 73 0 97 -4 107 -15z m104 -308 c11 -8 17 -23
14 -38 l-3 -24 -160 0 c-159 0 -160 0 -163 23 -7 46 10 52 157 52 97 0 142 -4
155 -13z m-104 -322 c6 -8 9 -23 5 -35 -6 -18 -14 -20 -111 -20 l-104 0 0 28
c0 16 3 32 7 35 3 4 48 7 98 7 69 0 96 -4 105 -15z m0 -375 c8 -14 8 -26 0
-40 -10 -19 -19 -20 -108 -18 -93 3 -97 4 -100 26 -7 48 1 52 102 52 85 0 96
-2 106 -20z m118 -278 c7 -47 -9 -52 -169 -52 -139 0 -148 1 -154 20 -3 11 -3
29 0 40 6 20 13 20 163 18 155 -3 157 -3 160 -26z" id="node15" class="node"></path>
<path d="M152 2208 c-5 -7 -12 -24 -14 -38 l-3 -25 163 -3 c176 -3 173 -4 152
52 l-10 26 -139 0 c-99 0 -141 -4 -149 -12z" id="node16" class="node"></path>
<path d="M127 1933 c-4 -3 -7 -228 -7 -500 0 -443 2 -494 16 -500 9 -3 20 0
25 8 14 23 11 973 -3 987 -14 14 -22 15 -31 5z" id="node17" class="node"></path>
<path d="M282 1928 c-14 -14 -17 -964 -3 -987 5 -8 16 -11 25 -8 15 6 16 54
14 503 -2 333 -6 498 -13 501 -6 2 -16 -2 -23 -9z" id="node18" class="node"></path>
<path d="M437 1933 c-4 -3 -7 -228 -7 -500 0 -443 2 -494 16 -500 9 -3 20 0
25 8 14 23 11 973 -3 987 -14 14 -22 15 -31 5z" id="node19" class="node"></path>
<path d="M1316 1260 l-181 -180 177 -177 178 -178 175 175 c111 111 175 182
175 195 0 21 -313 345 -333 345 -6 0 -92 -81 -191 -180z" id="node20" class="node"></path>
<path d="M962 916 c-54 -55 -92 -102 -92 -113 0 -27 21 -53 141 -173 l99 -100
83 0 82 0 68 66 c37 36 67 67 67 69 0 6 -342 345 -349 345 -4 0 -49 -42 -99
-94z" id="node21" class="node"></path>
<path d="M185 713 c33 -62 46 -70 114 -70 62 0 64 1 92 40 16 22 29 44 29 49
0 4 -56 8 -125 8 l-126 0 16 -27z" id="node22" class="node"></path>
</g>
</svg>