<?xml version="1.0" encoding="iso-8859-1"?>
<!-- Generator: Adobe Illustrator 16.0.0, SVG Export Plug-In . SVG Version: 6.00 Build 0)  -->
<!DOCTYPE svg PUBLIC "-//W3C//DTD SVG 1.1//EN" "http://www.w3.org/Graphics/SVG/1.1/DTD/svg11.dtd">
<svg version="1.1" id="Capa_1" xmlns="http://www.w3.org/2000/svg" xmlns:xlink="http://www.w3.org/1999/xlink" x="0px" y="0px"
	 width="44.438px" height="44.438px" viewBox="0 0 44.438 44.438" style="enable-background:new 0 0 44.438 44.438;"
	 xml:space="preserve">
<g>
	<g>
		<path d="M43.984,10.046L30.505,3.641c-0.106-0.051-0.225-0.075-0.34-0.075c-0.198,0-0.396,0.077-0.549,0.223
			c-0.233,0.231-0.306,0.583-0.17,0.885l1.379,3.087c-0.007,0.001-0.013,0.001-0.017,0.002c-0.645,0.007-1.381,0.137-2.174,0.259
			c-0.795,0.145-1.65,0.217-2.543,0.447c-0.885,0.234-1.816,0.485-2.783,0.744c-0.938,0.356-1.901,0.719-2.865,1.104
			c-0.928,0.489-1.893,0.916-2.785,1.47c-0.879,0.585-1.786,1.095-2.567,1.77c-0.396,0.317-0.791,0.636-1.183,0.948
			c-0.358,0.343-0.717,0.683-1.065,1.017c-0.355,0.322-0.681,0.667-0.979,1.021c-0.305,0.346-0.602,0.685-0.891,1.014
			c-0.521,0.704-1.047,1.333-1.443,1.981c-0.428,0.623-0.768,1.227-1.063,1.757c-0.291,0.535-0.523,1.013-0.705,1.408
			c-0.359,0.793-0.51,1.267-0.51,1.267s0.239-0.435,0.744-1.13c0.252-0.35,0.567-0.763,0.95-1.217
			c0.39-0.453,0.824-0.957,1.349-1.466c0.492-0.532,1.11-1.024,1.719-1.575c0.328-0.249,0.664-0.505,1.01-0.768
			c0.338-0.268,0.691-0.521,1.078-0.748c0.375-0.235,0.756-0.477,1.141-0.72c0.404-0.207,0.813-0.417,1.228-0.629
			c0.799-0.457,1.703-0.738,2.553-1.093c0.867-0.319,1.779-0.515,2.636-0.772c0.889-0.149,1.762-0.299,2.604-0.441
			c0.854-0.052,1.678-0.103,2.459-0.147c0.143-0.01,0.285-0.013,0.428-0.013c0.623,0,1.227,0.065,1.773,0.075
			c0.68,0.03,1.293,0.037,1.85,0.148c0.022,0.004,0.045,0.007,0.066,0.01l-1.479,3.186c-0.142,0.301-0.076,0.652,0.153,0.888
			c0.09,0.089,0.193,0.151,0.308,0.189c0.082,0.027,0.166,0.041,0.252,0.041c0.11,0,0.223-0.022,0.328-0.07l13.575-6.24
			c0.275-0.128,0.457-0.404,0.459-0.71C44.439,10.458,44.26,10.178,43.984,10.046z"/>
		<path d="M36.49,37.02c0,0.134-0.109,0.242-0.242,0.242H3.855c-0.135,0-0.242-0.108-0.242-0.242V12.692
			c0-0.134,0.107-0.241,0.242-0.241h10.304l0.011-0.01c0.639-0.549,1.321-0.981,1.983-1.401c0.234-0.149,0.474-0.303,0.707-0.458
			c0.015-0.009,0.027-0.019,0.041-0.025c0.652-0.403,1.322-0.736,1.969-1.059c0.304-0.15,0.605-0.303,0.904-0.459
			c0.043-0.021,0.086-0.043,0.131-0.062c0.121-0.049,0.238-0.092,0.359-0.141H3.854C1.727,8.836,0,10.565,0,12.69v24.327
			c0,2.126,1.729,3.854,3.854,3.854h32.393c2.125,0,3.854-1.729,3.854-3.854V14.842l-3.612,1.66L36.49,37.02L36.49,37.02z"/>
	</g>
</g>
<g>
</g>
<g>
</g>
<g>
</g>
<g>
</g>
<g>
</g>
<g>
</g>
<g>
</g>
<g>
</g>
<g>
</g>
<g>
</g>
<g>
</g>
<g>
</g>
<g>
</g>
<g>
</g>
<g>
</g>
</svg>
